<?xml version="1.0" standalone="no"?><!DOCTYPE svg PUBLIC "-//W3C//DTD SVG 1.1//EN" "http://www.w3.org/Graphics/SVG/1.1/DTD/svg11.dtd"><svg t="1575617551612" class="icon" viewBox="0 0 1024 1024" version="1.1" xmlns="http://www.w3.org/2000/svg" p-id="28946" xmlns:xlink="http://www.w3.org/1999/xlink" width="200" height="200"><defs><style type="text/css"></style></defs><path d="M620.8 563.2H395.52c-17.92 0-32-14.08-32-32s14.08-32 32-32H620.8c17.92 0 32 14.08 32 32s-14.08 32-32 32z" fill="#515151" p-id="28947"></path><path d="M232.32 523.52m-53.76 0a53.76 53.76 0 1 0 107.52 0 53.76 53.76 0 1 0-107.52 0Z" fill="#515151" p-id="28948"></path><path d="M784.64 807.68H395.52c-17.92 0-32-14.08-32-32s14.08-32 32-32h389.12c17.92 0 32 14.08 32 32s-14.08 32-32 32z" fill="#515151" p-id="28949"></path><path d="M232.32 768m-53.76 0a53.76 53.76 0 1 0 107.52 0 53.76 53.76 0 1 0-107.52 0Z" fill="#515151" p-id="28950"></path><path d="M232.32 279.68m-53.76 0a53.76 53.76 0 1 0 107.52 0 53.76 53.76 0 1 0-107.52 0Z" fill="#515151" p-id="28951"></path><path d="M887.04 319.36H395.52c-17.92 0-32-14.08-32-32s14.08-32 32-32h491.52c17.92 0 32 14.08 32 32s-14.08 32-32 32z" fill="#515151" p-id="28952"></path></svg>