<?xml version="1.0" standalone="no"?><!DOCTYPE svg PUBLIC "-//W3C//DTD SVG 1.1//EN" "http://www.w3.org/Graphics/SVG/1.1/DTD/svg11.dtd"><svg t="1575600988015" class="icon" viewBox="0 0 1024 1024" version="1.1" xmlns="http://www.w3.org/2000/svg" p-id="18143" xmlns:xlink="http://www.w3.org/1999/xlink" width="200" height="200"><defs><style type="text/css"></style></defs><path d="M414.293333 481.706667a42.666667 42.666667 0 0 0-60.586666 60.586666l128 128A42.666667 42.666667 0 0 0 512 682.666667a42.666667 42.666667 0 0 0 30.72-14.506667l298.666667-341.333333a42.666667 42.666667 0 0 0-64-56.32L512 577.706667z" fill="#231F20" p-id="18144"></path><path d="M896 469.333333a42.666667 42.666667 0 0 0-42.666667 42.666667 341.333333 341.333333 0 0 1-341.333333 341.333333A341.333333 341.333333 0 0 1 270.08 271.36 338.346667 338.346667 0 0 1 512 170.666667a375.04 375.04 0 0 1 81.066667 9.386666 42.666667 42.666667 0 1 0 20.053333-82.773333A449.706667 449.706667 0 0 0 512 85.333333a426.666667 426.666667 0 0 0-298.666667 729.173334A423.68 423.68 0 0 0 512 938.666667a426.666667 426.666667 0 0 0 426.666667-426.666667 42.666667 42.666667 0 0 0-42.666667-42.666667z" fill="#231F20" p-id="18145"></path></svg>